<mxfile host="app.diagrams.net" modified="2021-04-04T19:28:54.390Z" agent="5.0 (Windows NT 10.0; Win64; x64) AppleWebKit/537.36 (KHTML, like Gecko) Chrome/89.0.4389.114 Safari/537.36" etag="jI8fOwS9HyF5lK22wOIY" version="14.5.7" type="github">
  <diagram id="-g5lU18gktE1e8Ps9vkl" name="Page-1">
    <mxGraphModel dx="730" dy="317" grid="1" gridSize="10" guides="1" tooltips="1" connect="1" arrows="1" fold="1" page="1" pageScale="1" pageWidth="850" pageHeight="1100" math="0" shadow="0">
      <root>
        <mxCell id="0" />
        <mxCell id="1" parent="0" />
        <mxCell id="jfAC8rqVL113YkVz1IvF-15" style="edgeStyle=orthogonalEdgeStyle;rounded=0;orthogonalLoop=1;jettySize=auto;html=1;entryX=0.5;entryY=0;entryDx=0;entryDy=0;endArrow=open;endFill=0;endSize=12;" parent="1" source="jfAC8rqVL113YkVz1IvF-1" target="jfAC8rqVL113YkVz1IvF-5" edge="1">
          <mxGeometry relative="1" as="geometry" />
        </mxCell>
        <mxCell id="jfAC8rqVL113YkVz1IvF-16" value="*" style="edgeLabel;html=1;align=center;verticalAlign=middle;resizable=0;points=[];fontSize=18;" parent="jfAC8rqVL113YkVz1IvF-15" vertex="1" connectable="0">
          <mxGeometry x="-0.2368" y="1" relative="1" as="geometry">
            <mxPoint x="-21" y="27" as="offset" />
          </mxGeometry>
        </mxCell>
        <mxCell id="jfAC8rqVL113YkVz1IvF-17" value="&lt;font style=&quot;font-size: 11px&quot;&gt;- departments&lt;/font&gt;" style="edgeLabel;html=1;align=center;verticalAlign=middle;resizable=0;points=[];fontSize=18;" parent="jfAC8rqVL113YkVz1IvF-15" vertex="1" connectable="0">
          <mxGeometry x="-0.3684" y="1" relative="1" as="geometry">
            <mxPoint x="39" y="32" as="offset" />
          </mxGeometry>
        </mxCell>
        <mxCell id="jfAC8rqVL113YkVz1IvF-1" value="SabanaPayroll" style="swimlane;fontStyle=1;align=center;verticalAlign=top;childLayout=stackLayout;horizontal=1;startSize=26;horizontalStack=0;resizeParent=1;resizeParentMax=0;resizeLast=0;collapsible=1;marginBottom=0;" parent="1" vertex="1">
          <mxGeometry x="180" y="170" width="340" height="110" as="geometry" />
        </mxCell>
        <mxCell id="jfAC8rqVL113YkVz1IvF-3" value="" style="line;strokeWidth=1;fillColor=none;align=left;verticalAlign=middle;spacingTop=-1;spacingLeft=3;spacingRight=3;rotatable=0;labelPosition=right;points=[];portConstraint=eastwest;" parent="jfAC8rqVL113YkVz1IvF-1" vertex="1">
          <mxGeometry y="26" width="340" height="8" as="geometry" />
        </mxCell>
        <mxCell id="jfAC8rqVL113YkVz1IvF-4" value="+ calculateEmployeeSalary(employeeId: UUID): double&#xa;+ calculateDepartmentSalaries(departmentId: UUID): double&#xa;+ calculateUniversitySalaries(): double&#xa;+ printPayroll(): void" style="text;strokeColor=none;fillColor=none;align=left;verticalAlign=top;spacingLeft=4;spacingRight=4;overflow=hidden;rotatable=0;points=[[0,0.5],[1,0.5]];portConstraint=eastwest;" parent="jfAC8rqVL113YkVz1IvF-1" vertex="1">
          <mxGeometry y="34" width="340" height="76" as="geometry" />
        </mxCell>
        <mxCell id="jfAC8rqVL113YkVz1IvF-14" style="edgeStyle=orthogonalEdgeStyle;rounded=0;orthogonalLoop=1;jettySize=auto;html=1;entryX=0.5;entryY=0;entryDx=0;entryDy=0;endArrow=open;endFill=0;endSize=12;" parent="1" source="jfAC8rqVL113YkVz1IvF-5" target="jfAC8rqVL113YkVz1IvF-9" edge="1">
          <mxGeometry relative="1" as="geometry" />
        </mxCell>
        <mxCell id="jfAC8rqVL113YkVz1IvF-5" value="Department" style="swimlane;fontStyle=1;align=center;verticalAlign=top;childLayout=stackLayout;horizontal=1;startSize=26;horizontalStack=0;resizeParent=1;resizeParentMax=0;resizeLast=0;collapsible=1;marginBottom=0;" parent="1" vertex="1">
          <mxGeometry x="235" y="340" width="230" height="86" as="geometry" />
        </mxCell>
        <mxCell id="jfAC8rqVL113YkVz1IvF-6" value="+ id: UUID" style="text;strokeColor=none;fillColor=none;align=left;verticalAlign=top;spacingLeft=4;spacingRight=4;overflow=hidden;rotatable=0;points=[[0,0.5],[1,0.5]];portConstraint=eastwest;" parent="jfAC8rqVL113YkVz1IvF-5" vertex="1">
          <mxGeometry y="26" width="230" height="26" as="geometry" />
        </mxCell>
        <mxCell id="jfAC8rqVL113YkVz1IvF-7" value="" style="line;strokeWidth=1;fillColor=none;align=left;verticalAlign=middle;spacingTop=-1;spacingLeft=3;spacingRight=3;rotatable=0;labelPosition=right;points=[];portConstraint=eastwest;" parent="jfAC8rqVL113YkVz1IvF-5" vertex="1">
          <mxGeometry y="52" width="230" height="8" as="geometry" />
        </mxCell>
        <mxCell id="jfAC8rqVL113YkVz1IvF-8" value="+ calculateDepartmentSalaries(): double" style="text;strokeColor=none;fillColor=none;align=left;verticalAlign=top;spacingLeft=4;spacingRight=4;overflow=hidden;rotatable=0;points=[[0,0.5],[1,0.5]];portConstraint=eastwest;" parent="jfAC8rqVL113YkVz1IvF-5" vertex="1">
          <mxGeometry y="60" width="230" height="26" as="geometry" />
        </mxCell>
        <mxCell id="jfAC8rqVL113YkVz1IvF-9" value="Employee" style="swimlane;fontStyle=3;align=center;verticalAlign=top;childLayout=stackLayout;horizontal=1;startSize=26;horizontalStack=0;resizeParent=1;resizeParentMax=0;resizeLast=0;collapsible=1;marginBottom=0;" parent="1" vertex="1">
          <mxGeometry x="235" y="500" width="230" height="110" as="geometry" />
        </mxCell>
        <mxCell id="jfAC8rqVL113YkVz1IvF-10" value="+ id: UUID" style="text;strokeColor=none;fillColor=none;align=left;verticalAlign=top;spacingLeft=4;spacingRight=4;overflow=hidden;rotatable=0;points=[[0,0.5],[1,0.5]];portConstraint=eastwest;" parent="jfAC8rqVL113YkVz1IvF-9" vertex="1">
          <mxGeometry y="26" width="230" height="26" as="geometry" />
        </mxCell>
        <mxCell id="jfAC8rqVL113YkVz1IvF-11" value="" style="line;strokeWidth=1;fillColor=none;align=left;verticalAlign=middle;spacingTop=-1;spacingLeft=3;spacingRight=3;rotatable=0;labelPosition=right;points=[];portConstraint=eastwest;" parent="jfAC8rqVL113YkVz1IvF-9" vertex="1">
          <mxGeometry y="52" width="230" height="8" as="geometry" />
        </mxCell>
        <mxCell id="jfAC8rqVL113YkVz1IvF-12" value="+ calculateSalary(): double&#xa;+ toString(): String" style="text;strokeColor=none;fillColor=none;align=left;verticalAlign=top;spacingLeft=4;spacingRight=4;overflow=hidden;rotatable=0;points=[[0,0.5],[1,0.5]];portConstraint=eastwest;fontStyle=2" parent="jfAC8rqVL113YkVz1IvF-9" vertex="1">
          <mxGeometry y="60" width="230" height="50" as="geometry" />
        </mxCell>
        <mxCell id="jfAC8rqVL113YkVz1IvF-18" value="&lt;span style=&quot;font-size: 11px&quot;&gt;- employees&lt;/span&gt;" style="edgeLabel;html=1;align=center;verticalAlign=middle;resizable=0;points=[];fontSize=18;" parent="1" vertex="1" connectable="0">
          <mxGeometry x="400" y="350" as="geometry">
            <mxPoint x="-8" y="134" as="offset" />
          </mxGeometry>
        </mxCell>
        <mxCell id="jfAC8rqVL113YkVz1IvF-19" value="*" style="edgeLabel;html=1;align=center;verticalAlign=middle;resizable=0;points=[];fontSize=18;" parent="1" vertex="1" connectable="0">
          <mxGeometry x="350" y="320" as="geometry">
            <mxPoint x="-16" y="163" as="offset" />
          </mxGeometry>
        </mxCell>
        <mxCell id="w8eOH1oVKVP13UaxOc6L-1" value="BankAccount&#xa;" style="swimlane;fontStyle=3;align=center;verticalAlign=top;childLayout=stackLayout;horizontal=1;startSize=26;horizontalStack=0;resizeParent=1;resizeParentMax=0;resizeLast=0;collapsible=1;marginBottom=0;" parent="1" vertex="1">
          <mxGeometry x="580" y="500" width="210" height="120" as="geometry" />
        </mxCell>
        <mxCell id="w8eOH1oVKVP13UaxOc6L-2" value="- balance: double" style="text;strokeColor=none;fillColor=none;align=left;verticalAlign=top;spacingLeft=4;spacingRight=4;overflow=hidden;rotatable=0;points=[[0,0.5],[1,0.5]];portConstraint=eastwest;" parent="w8eOH1oVKVP13UaxOc6L-1" vertex="1">
          <mxGeometry y="26" width="210" height="26" as="geometry" />
        </mxCell>
        <mxCell id="w8eOH1oVKVP13UaxOc6L-3" value="" style="line;strokeWidth=1;fillColor=none;align=left;verticalAlign=middle;spacingTop=-1;spacingLeft=3;spacingRight=3;rotatable=0;labelPosition=right;points=[];portConstraint=eastwest;" parent="w8eOH1oVKVP13UaxOc6L-1" vertex="1">
          <mxGeometry y="52" width="210" height="8" as="geometry" />
        </mxCell>
        <mxCell id="w8eOH1oVKVP13UaxOc6L-4" value="+ deposit(amount: double): boolean&#xa;+ withdraw(amount: double): double&#xa;+ getDepositDiscount(): doubleÂ " style="text;strokeColor=none;fillColor=none;align=left;verticalAlign=top;spacingLeft=4;spacingRight=4;overflow=hidden;rotatable=0;points=[[0,0.5],[1,0.5]];portConstraint=eastwest;fontStyle=0" parent="w8eOH1oVKVP13UaxOc6L-1" vertex="1">
          <mxGeometry y="60" width="210" height="60" as="geometry" />
        </mxCell>
        <mxCell id="w8eOH1oVKVP13UaxOc6L-16" style="edgeStyle=orthogonalEdgeStyle;rounded=0;orthogonalLoop=1;jettySize=auto;html=1;entryX=0.5;entryY=0.983;entryDx=0;entryDy=0;entryPerimeter=0;endArrow=block;endFill=0;endSize=12;strokeWidth=1;" parent="1" source="w8eOH1oVKVP13UaxOc6L-5" target="w8eOH1oVKVP13UaxOc6L-4" edge="1">
          <mxGeometry relative="1" as="geometry" />
        </mxCell>
        <mxCell id="w8eOH1oVKVP13UaxOc6L-5" value="Checking" style="swimlane;fontStyle=1;align=center;verticalAlign=top;childLayout=stackLayout;horizontal=1;startSize=26;horizontalStack=0;resizeParent=1;resizeParentMax=0;resizeLast=0;collapsible=1;marginBottom=0;" parent="1" vertex="1">
          <mxGeometry x="425" y="720" width="250" height="90" as="geometry" />
        </mxCell>
        <mxCell id="w8eOH1oVKVP13UaxOc6L-6" value="+ DEPOSIT_DISCOUNT: double = 5000" style="text;strokeColor=none;fillColor=none;align=left;verticalAlign=top;spacingLeft=4;spacingRight=4;overflow=hidden;rotatable=0;points=[[0,0.5],[1,0.5]];portConstraint=eastwest;" parent="w8eOH1oVKVP13UaxOc6L-5" vertex="1">
          <mxGeometry y="26" width="250" height="26" as="geometry" />
        </mxCell>
        <mxCell id="w8eOH1oVKVP13UaxOc6L-7" value="" style="line;strokeWidth=1;fillColor=none;align=left;verticalAlign=middle;spacingTop=-1;spacingLeft=3;spacingRight=3;rotatable=0;labelPosition=right;points=[];portConstraint=eastwest;" parent="w8eOH1oVKVP13UaxOc6L-5" vertex="1">
          <mxGeometry y="52" width="250" height="8" as="geometry" />
        </mxCell>
        <mxCell id="w8eOH1oVKVP13UaxOc6L-8" value="+ processCheck(Check): boolean" style="text;strokeColor=none;fillColor=none;align=left;verticalAlign=top;spacingLeft=4;spacingRight=4;overflow=hidden;rotatable=0;points=[[0,0.5],[1,0.5]];portConstraint=eastwest;fontStyle=0" parent="w8eOH1oVKVP13UaxOc6L-5" vertex="1">
          <mxGeometry y="60" width="250" height="30" as="geometry" />
        </mxCell>
        <mxCell id="w8eOH1oVKVP13UaxOc6L-17" style="edgeStyle=orthogonalEdgeStyle;rounded=0;orthogonalLoop=1;jettySize=auto;html=1;endArrow=block;endFill=0;endSize=12;strokeWidth=1;entryX=0.505;entryY=1.017;entryDx=0;entryDy=0;entryPerimeter=0;" parent="1" source="w8eOH1oVKVP13UaxOc6L-9" target="w8eOH1oVKVP13UaxOc6L-4" edge="1">
          <mxGeometry relative="1" as="geometry">
            <mxPoint x="680" y="630" as="targetPoint" />
            <Array as="points">
              <mxPoint x="850" y="675" />
              <mxPoint x="686" y="675" />
            </Array>
          </mxGeometry>
        </mxCell>
        <mxCell id="w8eOH1oVKVP13UaxOc6L-9" value="Savings" style="swimlane;fontStyle=1;align=center;verticalAlign=top;childLayout=stackLayout;horizontal=1;startSize=26;horizontalStack=0;resizeParent=1;resizeParentMax=0;resizeLast=0;collapsible=1;marginBottom=0;" parent="1" vertex="1">
          <mxGeometry x="720" y="720" width="260" height="108" as="geometry" />
        </mxCell>
        <mxCell id="w8eOH1oVKVP13UaxOc6L-10" value="+ DEPOSIT_DISCOUNT: double = 2000&#xa;+ ANNUAL_INTEREST_RATE: double = 0.01" style="text;strokeColor=none;fillColor=none;align=left;verticalAlign=top;spacingLeft=4;spacingRight=4;overflow=hidden;rotatable=0;points=[[0,0.5],[1,0.5]];portConstraint=eastwest;" parent="w8eOH1oVKVP13UaxOc6L-9" vertex="1">
          <mxGeometry y="26" width="260" height="44" as="geometry" />
        </mxCell>
        <mxCell id="w8eOH1oVKVP13UaxOc6L-11" value="" style="line;strokeWidth=1;fillColor=none;align=left;verticalAlign=middle;spacingTop=-1;spacingLeft=3;spacingRight=3;rotatable=0;labelPosition=right;points=[];portConstraint=eastwest;" parent="w8eOH1oVKVP13UaxOc6L-9" vertex="1">
          <mxGeometry y="70" width="260" height="8" as="geometry" />
        </mxCell>
        <mxCell id="w8eOH1oVKVP13UaxOc6L-12" value="+ depositMontlyInterest(): double" style="text;strokeColor=none;fillColor=none;align=left;verticalAlign=top;spacingLeft=4;spacingRight=4;overflow=hidden;rotatable=0;points=[[0,0.5],[1,0.5]];portConstraint=eastwest;fontStyle=0" parent="w8eOH1oVKVP13UaxOc6L-9" vertex="1">
          <mxGeometry y="78" width="260" height="30" as="geometry" />
        </mxCell>
        <mxCell id="w8eOH1oVKVP13UaxOc6L-13" style="edgeStyle=orthogonalEdgeStyle;rounded=0;orthogonalLoop=1;jettySize=auto;html=1;exitX=1;exitY=0.5;exitDx=0;exitDy=0;entryX=0;entryY=0.5;entryDx=0;entryDy=0;endArrow=open;endFill=0;endSize=12;" parent="1" source="jfAC8rqVL113YkVz1IvF-10" target="w8eOH1oVKVP13UaxOc6L-2" edge="1">
          <mxGeometry relative="1" as="geometry" />
        </mxCell>
        <mxCell id="w8eOH1oVKVP13UaxOc6L-18" value="- account" style="edgeLabel;html=1;align=center;verticalAlign=middle;resizable=0;points=[];" parent="w8eOH1oVKVP13UaxOc6L-13" vertex="1" connectable="0">
          <mxGeometry x="0.4435" relative="1" as="geometry">
            <mxPoint x="2" y="-19" as="offset" />
          </mxGeometry>
        </mxCell>
        <mxCell id="w8eOH1oVKVP13UaxOc6L-19" value="1" style="edgeLabel;html=1;align=center;verticalAlign=middle;resizable=0;points=[];fontSize=15;" parent="1" vertex="1" connectable="0">
          <mxGeometry x="540" y="560" as="geometry">
            <mxPoint x="29" y="-3" as="offset" />
          </mxGeometry>
        </mxCell>
        <mxCell id="z-MG8ckr3MhjlhRMM7Hk-9" value="UniversitBenefit" style="swimlane;fontStyle=1;align=center;verticalAlign=top;childLayout=stackLayout;horizontal=1;startSize=26;horizontalStack=0;resizeParent=1;resizeParentMax=0;resizeLast=0;collapsible=1;marginBottom=0;" vertex="1" parent="1">
          <mxGeometry x="720" y="870" width="260" height="34" as="geometry" />
        </mxCell>
        <mxCell id="z-MG8ckr3MhjlhRMM7Hk-19" style="edgeStyle=orthogonalEdgeStyle;rounded=0;orthogonalLoop=1;jettySize=auto;html=1;endArrow=block;endFill=0;endSize=12;strokeWidth=1;entryX=0.505;entryY=1.017;entryDx=0;entryDy=0;entryPerimeter=0;exitX=0.5;exitY=0;exitDx=0;exitDy=0;" edge="1" parent="z-MG8ckr3MhjlhRMM7Hk-9" source="z-MG8ckr3MhjlhRMM7Hk-9">
          <mxGeometry relative="1" as="geometry">
            <mxPoint x="130.04999999999973" y="-42" as="targetPoint" />
            <Array as="points">
              <mxPoint x="130" />
              <mxPoint x="130" />
            </Array>
            <mxPoint x="294" y="56.98000000000002" as="sourcePoint" />
          </mxGeometry>
        </mxCell>
        <mxCell id="z-MG8ckr3MhjlhRMM7Hk-11" value="" style="line;strokeWidth=1;fillColor=none;align=left;verticalAlign=middle;spacingTop=-1;spacingLeft=3;spacingRight=3;rotatable=0;labelPosition=right;points=[];portConstraint=eastwest;" vertex="1" parent="z-MG8ckr3MhjlhRMM7Hk-9">
          <mxGeometry y="26" width="260" height="8" as="geometry" />
        </mxCell>
        <mxCell id="z-MG8ckr3MhjlhRMM7Hk-13" value="VacationBenefit" style="swimlane;fontStyle=1;align=center;verticalAlign=top;childLayout=stackLayout;horizontal=1;startSize=26;horizontalStack=0;resizeParent=1;resizeParentMax=0;resizeLast=0;collapsible=1;marginBottom=0;" vertex="1" parent="1">
          <mxGeometry x="490" y="950" width="260" height="54" as="geometry" />
        </mxCell>
        <mxCell id="z-MG8ckr3MhjlhRMM7Hk-14" value="" style="line;strokeWidth=1;fillColor=none;align=left;verticalAlign=middle;spacingTop=-1;spacingLeft=3;spacingRight=3;rotatable=0;labelPosition=right;points=[];portConstraint=eastwest;" vertex="1" parent="z-MG8ckr3MhjlhRMM7Hk-13">
          <mxGeometry y="26" width="260" height="8" as="geometry" />
        </mxCell>
        <mxCell id="z-MG8ckr3MhjlhRMM7Hk-17" value="+ withsrawForVacation()" style="text;html=1;align=left;verticalAlign=middle;resizable=0;points=[];autosize=1;" vertex="1" parent="z-MG8ckr3MhjlhRMM7Hk-13">
          <mxGeometry y="34" width="260" height="20" as="geometry" />
        </mxCell>
        <mxCell id="z-MG8ckr3MhjlhRMM7Hk-15" value="CourseBenefit" style="swimlane;fontStyle=1;align=center;verticalAlign=top;childLayout=stackLayout;horizontal=1;startSize=26;horizontalStack=0;resizeParent=1;resizeParentMax=0;resizeLast=0;collapsible=1;marginBottom=0;" vertex="1" parent="1">
          <mxGeometry x="920" y="950" width="260" height="34" as="geometry" />
        </mxCell>
        <mxCell id="z-MG8ckr3MhjlhRMM7Hk-16" value="" style="line;strokeWidth=1;fillColor=none;align=left;verticalAlign=middle;spacingTop=-1;spacingLeft=3;spacingRight=3;rotatable=0;labelPosition=right;points=[];portConstraint=eastwest;" vertex="1" parent="z-MG8ckr3MhjlhRMM7Hk-15">
          <mxGeometry y="26" width="260" height="8" as="geometry" />
        </mxCell>
        <mxCell id="z-MG8ckr3MhjlhRMM7Hk-20" style="edgeStyle=orthogonalEdgeStyle;rounded=0;orthogonalLoop=1;jettySize=auto;html=1;endArrow=block;endFill=0;endSize=12;strokeWidth=1;exitX=0.5;exitY=0;exitDx=0;exitDy=0;" edge="1" parent="1" source="z-MG8ckr3MhjlhRMM7Hk-15">
          <mxGeometry relative="1" as="geometry">
            <mxPoint x="850" y="904" as="targetPoint" />
            <Array as="points">
              <mxPoint x="1050" y="920" />
              <mxPoint x="850" y="920" />
            </Array>
            <mxPoint x="860" y="880" as="sourcePoint" />
          </mxGeometry>
        </mxCell>
        <mxCell id="z-MG8ckr3MhjlhRMM7Hk-22" style="edgeStyle=orthogonalEdgeStyle;rounded=0;orthogonalLoop=1;jettySize=auto;html=1;endArrow=block;endFill=0;endSize=12;strokeWidth=1;exitX=0.5;exitY=0;exitDx=0;exitDy=0;entryX=0.5;entryY=1;entryDx=0;entryDy=0;" edge="1" parent="1" source="z-MG8ckr3MhjlhRMM7Hk-13" target="z-MG8ckr3MhjlhRMM7Hk-9">
          <mxGeometry relative="1" as="geometry">
            <mxPoint x="690" y="904" as="targetPoint" />
            <Array as="points">
              <mxPoint x="620" y="920" />
              <mxPoint x="850" y="920" />
            </Array>
            <mxPoint x="890" y="950" as="sourcePoint" />
          </mxGeometry>
        </mxCell>
      </root>
    </mxGraphModel>
  </diagram>
</mxfile>
